<svg width="200" height="200" viewBox="0 0 200 200" fill="none" xmlns="http://www.w3.org/2000/svg">
<path d="M100 185C88.6 185 77.4 182.8 67 178.4C56.8 174.2 47.8 168 40 160.2C32.2 152.4 26 143.4 21.8 133.2C17.2 122.6 15 111.4 15 100C15 90.2 23 82.2 32.8 82.2C42.6 82.2 50.6 90.2 50.6 100C50.6 106.6 51.8 113 54.4 119.2C56.8 125 60.4 130.4 65 134.8C69.6 139.4 74.8 142.8 80.6 145.4C86.6 148 93 149.2 99.8 149.2C106.6 149.2 112.8 148 119 145.4C124.8 143 130.2 139.4 134.6 134.8C139.2 130.2 142.6 125 145.2 119.2C147.8 113.2 149 106.8 149 100C149 93.4 147.8 87 145.2 80.8C142.8 75 139.2 69.6 134.6 65.2C130 60.6 124.8 57.2 119 54.6C113 52 106.6 50.8 99.8 50.8C90 50.8 82 42.8 82 33C82 23.2 90 15.2 99.8 15.2C111.2 15.2 122.4 17.4 132.8 21.8C143 26 152 32.2 159.8 40C167.6 47.8 173.8 56.8 178 67C182.4 77.4 184.6 88.6 184.6 100C184.6 111.4 182.4 122.6 178 133C173.8 143.2 167.6 152.2 159.8 160C152 167.8 143 174 132.8 178.2C122.6 182.8 111.4 185 100 185V185Z" fill="#FF9D6F"/>
</svg>
